<svg width="76" height="76" viewBox="0 0 76 76" fill="none" xmlns="http://www.w3.org/2000/svg">
<g clip-path="url(#clip0)">
<path fill-rule="evenodd" clip-rule="evenodd" d="M40.0171 0.189697C34.5499 2.12759 29.2723 7.7838 24.1842 17.1583C16.552 31.2201 6.69475 51.2021 20.2683 67.023C26.5479 74.3422 36.9162 78.662 50.523 71.8204C61.454 66.3243 64.494 50.5518 60.5696 43.14C52.4744 27.8509 44.2615 24.0799 42.0622 14.5984C40.596 8.27731 39.9143 3.47442 40.0171 0.189697Z" fill="url(#paint0_linear)"/>
<path fill-rule="evenodd" clip-rule="evenodd" d="M40.0182 0C34.5233 1.95787 29.2456 7.61408 24.1853 16.9686C16.5947 31.0004 6.69584 51.0124 20.2694 66.8333C26.5489 74.1525 36.7838 76.5177 42.4629 72.1768C46.1652 69.3469 48.6833 66.6493 50.134 60.9658C51.7494 54.6372 50.51 46.117 49.6607 42.2029C48.5861 37.2501 48.2343 31.814 48.6055 25.8947C48.4747 25.7354 48.377 25.6161 48.3123 25.537C45.3557 21.9186 43.0742 18.7669 42.0633 14.4087C40.5971 8.08761 39.9154 3.28472 40.0182 0Z" fill="url(#paint1_linear)"/>
<path fill-rule="evenodd" clip-rule="evenodd" d="M35.4673 2.46191C30.3492 6.5069 26.5438 13.2917 24.0511 22.8164C20.312 37.1034 19.9068 50.2783 21.2255 57.9415C23.7819 72.797 37.0353 78.436 50.6295 71.5213C58.9956 67.2659 62.4801 58.1317 62.2955 48.217C62.1044 37.9509 42.266 26.3162 38.7526 17.7485C36.4104 12.0367 35.3153 6.9412 35.4673 2.46191Z" fill="url(#paint2_linear)"/>
<path fill-rule="evenodd" clip-rule="evenodd" d="M48.4428 29.2472C54.5809 37.1192 55.9189 42.5991 52.4568 45.6868C47.2635 50.3184 34.5639 53.3404 26.6634 47.7377C21.3965 44.0026 19.4036 35.9899 20.6849 23.6997C18.5107 28.2404 16.6724 32.8401 15.17 37.4989C13.6675 42.1576 13.2288 47.033 13.8538 52.1248C15.7366 55.9341 20.3146 58.4782 27.5877 59.7572C38.4973 61.6757 48.823 60.7277 55.7516 57.235C60.3706 54.9065 62.5554 52.5886 62.3059 50.2812C62.4726 46.8739 61.4219 43.6303 59.1538 40.5505C56.8856 37.4707 53.3153 33.7029 48.4428 29.2472Z" fill="url(#paint3_linear)"/>
<path fill-rule="evenodd" clip-rule="evenodd" d="M24.456 21.3867C24.4047 27.0719 25.8665 32.4764 28.8414 37.6001C33.3039 45.2857 38.5127 52.88 46.3074 59.175C51.5038 63.3717 55.656 64.7275 58.7639 63.2426C56.2112 67.8111 53.4969 70.0496 50.6211 69.9584C46.3074 69.8214 41.0475 67.9362 32.6199 57.8087C27.0014 51.057 23.1578 44.6703 21.0891 38.6487C21.4172 36.2598 21.765 33.8804 22.1327 31.5105C22.5004 29.1406 23.2748 25.766 24.456 21.3867Z" fill="url(#paint4_linear)"/>
<path fill-rule="evenodd" clip-rule="evenodd" d="M37.639 29.1888C38.1158 33.8202 39.918 41.2286 37.639 46.1612C35.36 51.0938 24.8336 60.0046 27.7393 67.8543C30.645 75.7039 37.7263 73.9416 42.1681 70.3241C46.61 66.7066 48.9876 60.8243 49.5147 56.6876C50.0417 52.5509 48.2537 44.5912 47.6722 37.6677C47.2846 33.0521 47.5476 29.0947 48.4613 25.7955L47.1002 24.0827L39.0889 21.7107C37.8044 23.6086 37.3211 26.1013 37.639 29.1888Z" fill="url(#paint5_linear)"/>
<path fill-rule="evenodd" clip-rule="evenodd" d="M40.4988 6.24927C37.9059 7.34491 35.4492 9.51591 33.1287 12.7622C29.6481 17.6317 27.8753 20.5507 29.1875 30.2033C30.0624 36.6383 30.6885 42.5584 31.066 47.9636L42.2868 15.3619C41.8743 13.7007 41.5312 12.2004 41.2575 10.8611C40.9838 9.52174 40.7309 7.98447 40.4988 6.24927Z" fill="url(#paint6_linear)"/>
<path fill-rule="evenodd" clip-rule="evenodd" d="M42.2653 15.2971C39.4168 16.9597 37.2096 20.3659 35.6437 25.5158C34.0778 30.6657 32.6452 37.8651 31.3459 47.114C33.0789 41.2313 34.2284 36.9706 34.7945 34.3316C35.6437 30.3733 35.9338 24.7757 38.1886 20.9754C39.6918 18.4419 41.0507 16.5491 42.2653 15.2971Z" fill="#330A4C" fill-opacity="0.316321"/>
<path fill-rule="evenodd" clip-rule="evenodd" d="M29.0764 70.4758C33.764 71.1455 36.2151 71.7409 36.4299 72.262C36.752 73.0436 35.8365 73.7585 33.2345 73.2781C31.4998 72.9578 30.1138 72.0237 29.0764 70.4758Z" fill="white"/>
<path fill-rule="evenodd" clip-rule="evenodd" d="M31.4313 6.24927C28.853 9.3294 26.6189 12.5948 24.7289 16.0456C22.8389 19.4963 21.4885 22.0707 20.6776 23.7687C20.4262 25.0351 20.3035 26.9038 20.3095 29.3747C20.3155 31.8456 20.5292 34.593 20.9507 37.6169C21.3197 31.6956 22.4493 25.9479 24.3395 20.374C26.2297 14.8 28.5936 10.0918 31.4313 6.24927Z" fill="#EDEDED" fill-opacity="0.603261"/>
</g>
<defs>
<linearGradient id="paint0_linear" x1="38.964" y1="5.73608" x2="36.3535" y2="75.1955" gradientUnits="userSpaceOnUse">
<stop stop-color="#D9D8DC"/>
<stop offset="1" stop-color="white" stop-opacity="0.385275"/>
</linearGradient>
<linearGradient id="paint1_linear" x1="40.145" y1="5.71824" x2="12.863" y2="65.5128" gradientUnits="userSpaceOnUse">
<stop stop-color="#8D67AF" stop-opacity="0.671932"/>
<stop offset="1" stop-color="#9F8DAF"/>
</linearGradient>
<linearGradient id="paint2_linear" x1="43.1895" y1="25.0916" x2="43.1895" y2="73.176" gradientUnits="userSpaceOnUse">
<stop stop-color="#26053D" stop-opacity="0.761634"/>
<stop offset="1" stop-color="#B7B4B4" stop-opacity="0.277683"/>
</linearGradient>
<linearGradient id="paint3_linear" x1="18.5178" y1="28.3432" x2="30.759" y2="60.7696" gradientUnits="userSpaceOnUse">
<stop stop-color="#91739F" stop-opacity="0.45955"/>
<stop offset="1" stop-color="#32054F" stop-opacity="0.539912"/>
</linearGradient>
<linearGradient id="paint4_linear" x1="51.2375" y1="68.2173" x2="17.5752" y2="40.3248" gradientUnits="userSpaceOnUse">
<stop stop-color="#463D49" stop-opacity="0.331182"/>
<stop offset="1" stop-color="#340A50" stop-opacity="0.821388"/>
</linearGradient>
<linearGradient id="paint5_linear" x1="44.3183" y1="25.5448" x2="20.5768" y2="61.6621" gradientUnits="userSpaceOnUse">
<stop stop-color="#715383" stop-opacity="0.145239"/>
<stop offset="1" stop-color="#F4F4F4" stop-opacity="0.233639"/>
</linearGradient>
<linearGradient id="paint6_linear" x1="46.5889" y1="36.5611" x2="29.7757" y2="35.5347" gradientUnits="userSpaceOnUse">
<stop stop-color="#A5A1A8" stop-opacity="0.356091"/>
<stop offset="1" stop-color="#370C50" stop-opacity="0.581975"/>
</linearGradient>
<clipPath id="clip0">
<rect width="75.2519" height="75.2519" fill="white"/>
</clipPath>
</defs>
</svg>
