<svg width="409" height="278" viewBox="0 0 409 278" fill="none" xmlns="http://www.w3.org/2000/svg">
<path fill-rule="evenodd" clip-rule="evenodd" d="M155.357 164.741H204.5C205.451 164.741 206.085 165.427 206.085 166.457V221.37C206.085 222.4 205.451 223.086 204.5 223.086H155.357V276.284C155.357 277.314 154.723 278 153.771 278H103.043C102.091 278 101.457 277.314 101.457 276.284V223.086H1.58527C0.634109 223.086 0 222.4 0 221.37V56.6296C0 55.6 0.634109 54.9136 1.58527 54.9136H50.7287V1.71605C50.7287 0.68642 51.3628 0 52.314 0H153.771C154.723 0 155.357 0.68642 155.357 1.71605V164.741ZM101.457 164.741V58.3457H53.8992V164.741H101.457ZM255.229 0H407.415C408.366 0 409 0.858025 409 1.71605V111.543C409 112.573 408.366 113.259 407.415 113.259H358.271V166.457C358.271 167.486 357.637 168.173 356.686 168.173H307.543V219.654H407.415C408.366 219.654 409 220.341 409 221.37V276.284C409 277.314 408.366 278 407.415 278H255.229C254.278 278 253.643 277.314 253.643 276.284V166.457C253.643 165.427 254.278 164.741 255.229 164.741H304.372V111.543C304.372 110.514 305.006 109.827 305.957 109.827H355.101V58.3457H255.229C254.278 58.3457 253.643 57.6593 253.643 56.6296V1.71605C253.643 0.68642 254.278 0 255.229 0Z" fill="black"/>
</svg>
