<svg width="134" height="15" viewBox="0 0 134 15" fill="none" xmlns="http://www.w3.org/2000/svg">
<path d="M0 15H1.85679V9.52148H5.21099C8.78232 9.52148 10.392 7.39746 10.392 4.74609C10.392 2.09473 8.78232 0 5.18104 0H0V15ZM1.85679 7.91016V1.61133H5.12115C7.61434 1.61133 8.5652 2.94434 8.5652 4.74609C8.5652 6.54785 7.61434 7.91016 5.1511 7.91016H1.85679Z" fill="#F7DFAA"/>
<path d="M18.7723 15L20.3146 10.752H26.5139L28.0563 15H30.0029L24.3726 0H22.4559L16.8257 15H18.7723ZM20.8986 9.14062L23.3544 2.37305H23.4742L25.9299 9.14062H20.8986Z" fill="#F7DFAA"/>
<path d="M38.7163 15H47.7008V13.3887H40.5731V0H38.7163V15Z" fill="#F7DFAA"/>
<path d="M56.9009 0V15H58.6379V3.60352H58.7876L63.5793 15H65.2564L70.0482 3.60352H70.1979V15H71.9349V0H69.7187L64.5077 12.4512H64.3281L59.1171 0H56.9009Z" fill="#F7DFAA"/>
<path d="M80.6652 0L86.2056 8.81836V15H88.0624V8.81836L93.6028 0H91.4765L87.2239 7.00195H87.0442L82.7915 0H80.6652Z" fill="#F7DFAA"/>
<path d="M102.329 15H104.186V9.14062H107.54C107.675 9.14062 107.802 9.14063 107.93 9.1333L111.164 15H113.32L109.854 8.80371C111.808 8.15186 112.721 6.5918 112.721 4.59961C112.721 1.94824 111.104 0 107.51 0H102.329V15ZM104.186 7.5V1.61133H107.451C109.936 1.61133 110.895 2.79785 110.895 4.59961C110.895 6.40137 109.936 7.5 107.48 7.5H104.186Z" fill="#F7DFAA"/>
<path d="M122.769 15L124.312 10.752H130.511L132.053 15H134L128.37 0H126.453L120.823 15H122.769ZM124.896 9.14062L127.351 2.37305H127.471L129.927 9.14062H124.896Z" fill="#F7DFAA"/>
</svg>
