<svg width="76" height="76" viewBox="0 0 76 76" fill="none" xmlns="http://www.w3.org/2000/svg">
<g clip-path="url(#clip0)">
<path fill-rule="evenodd" clip-rule="evenodd" d="M58.4632 49.6692L15.3794 75.2521L71.1648 71.4666L75.4613 15.2158L58.4632 49.6692Z" fill="url(#paint0_linear)"/>
<path fill-rule="evenodd" clip-rule="evenodd" d="M71.2562 71.4281L66.4615 38.3345L53.4011 55.5802L71.2562 71.4281Z" fill="url(#paint1_linear)"/>
<path fill-rule="evenodd" clip-rule="evenodd" d="M71.3211 71.4281L36.194 68.6707L15.5662 75.1801L71.3211 71.4281Z" fill="url(#paint2_linear)"/>
<path fill-rule="evenodd" clip-rule="evenodd" d="M15.6156 75.1871L24.3908 46.4392L5.08081 50.5682L15.6156 75.1871Z" fill="url(#paint3_linear)"/>
<path fill-rule="evenodd" clip-rule="evenodd" d="M53.3977 55.6754L45.3233 24.0481L22.2161 45.7081L53.3977 55.6754Z" fill="url(#paint4_linear)"/>
<path fill-rule="evenodd" clip-rule="evenodd" d="M73.6294 24.4937L51.7866 6.65381L45.7041 26.318L73.6294 24.4937Z" fill="url(#paint5_linear)"/>
<path fill-rule="evenodd" clip-rule="evenodd" d="M63.4144 0.293215L50.5678 7.3926L42.4629 0.197998L63.4144 0.293215Z" fill="url(#paint6_linear)"/>
<path fill-rule="evenodd" clip-rule="evenodd" d="M0 60.2115L5.38167 50.3965L1.02834 38.7039L0 60.2115Z" fill="url(#paint7_linear)"/>
<path fill-rule="evenodd" clip-rule="evenodd" d="M0.73877 38.3344L5.11875 50.7583L24.1507 46.4884L45.8793 26.2948L52.0112 6.81754L42.3559 0L25.9404 6.1434C20.7686 10.9538 10.7327 20.4717 10.3709 20.6507C10.0129 20.8335 3.74382 32.6823 0.73877 38.3344Z" fill="white"/>
<path fill-rule="evenodd" clip-rule="evenodd" d="M16.1183 16.0154C27.3272 4.9017 41.7774 -1.66447 47.3228 3.93048C52.8648 9.52543 46.9877 23.1224 35.7787 34.2324C24.5698 45.3423 10.2986 52.2703 4.75699 46.6753C-0.78845 41.0842 4.90934 27.1254 16.1183 16.0154Z" fill="url(#paint8_linear)"/>
<path fill-rule="evenodd" clip-rule="evenodd" d="M15.6155 75.1758L24.3221 46.3364L53.2376 55.6258C42.7828 65.4293 31.1549 73.717 15.6155 75.1758Z" fill="url(#paint9_linear)"/>
<path fill-rule="evenodd" clip-rule="evenodd" d="M45.9175 26.2379L53.3406 55.641C62.0739 46.4582 69.9122 36.5861 73.751 24.3755L45.9175 26.2379Z" fill="url(#paint10_linear)"/>
<path fill-rule="evenodd" clip-rule="evenodd" d="M73.6751 24.5239C76.6459 15.5583 77.3315 2.69639 63.3227 0.30835L51.8281 6.65742L73.6751 24.5239Z" fill="url(#paint11_linear)"/>
<path fill-rule="evenodd" clip-rule="evenodd" d="M0 60.0821C0.411338 74.8792 11.0871 75.0997 15.6346 75.2296L5.13029 50.6975L0 60.0821Z" fill="#9E1209"/>
<path fill-rule="evenodd" clip-rule="evenodd" d="M45.959 26.2837C52.6699 30.4085 66.1949 38.6924 66.4691 38.8447C66.8953 39.0847 72.3002 29.7305 73.5266 24.4441L45.959 26.2837Z" fill="url(#paint12_radial)"/>
<path fill-rule="evenodd" clip-rule="evenodd" d="M24.3108 46.3364L35.9501 68.7924C42.8324 65.0599 48.2217 60.5123 53.1577 55.641L24.3108 46.3364Z" fill="url(#paint13_radial)"/>
<path fill-rule="evenodd" clip-rule="evenodd" d="M5.08446 50.7278L3.4353 70.3654C6.547 74.6159 10.828 74.9853 15.3184 74.654C12.0696 66.5681 5.57959 50.4003 5.08446 50.7278Z" fill="url(#paint14_linear)"/>
<path fill-rule="evenodd" clip-rule="evenodd" d="M51.76 6.70703L74.8825 9.95203C73.6485 4.72271 69.8589 1.34822 63.3993 0.293213L51.76 6.70703Z" fill="url(#paint15_linear)"/>
</g>
<defs>
<linearGradient id="paint0_linear" x1="66.2991" y1="82.0958" x2="50.3798" y2="53.9895" gradientUnits="userSpaceOnUse">
<stop stop-color="#FB7655"/>
<stop offset="0.41" stop-color="#E42B1E"/>
<stop offset="0.99" stop-color="#990000"/>
<stop offset="1" stop-color="#990000"/>
</linearGradient>
<linearGradient id="paint1_linear" x1="74.2293" y1="58.4853" x2="53.7129" y2="44.7175" gradientUnits="userSpaceOnUse">
<stop stop-color="#871101"/>
<stop offset="0.99" stop-color="#911209"/>
<stop offset="1" stop-color="#911209"/>
</linearGradient>
<linearGradient id="paint2_linear" x1="57.8141" y1="82.9476" x2="37.2984" y2="69.1803" gradientUnits="userSpaceOnUse">
<stop stop-color="#871101"/>
<stop offset="0.99" stop-color="#911209"/>
<stop offset="1" stop-color="#911209"/>
</linearGradient>
<linearGradient id="paint3_linear" x1="14.7382" y1="48.519" x2="17.9187" y2="69.189" gradientUnits="userSpaceOnUse">
<stop stop-color="white"/>
<stop offset="0.23" stop-color="#E57252"/>
<stop offset="0.46" stop-color="#DE3B20"/>
<stop offset="0.99" stop-color="#A60003"/>
<stop offset="1" stop-color="#A60003"/>
</linearGradient>
<linearGradient id="paint4_linear" x1="36.6139" y1="29.2185" x2="37.7858" y2="50.3136" gradientUnits="userSpaceOnUse">
<stop stop-color="white"/>
<stop offset="0.23" stop-color="#E4714E"/>
<stop offset="0.56" stop-color="#BE1A0D"/>
<stop offset="0.99" stop-color="#A80D00"/>
<stop offset="1" stop-color="#A80D00"/>
</linearGradient>
<linearGradient id="paint5_linear" x1="56.0268" y1="9.72018" x2="59.535" y2="24.8388" gradientUnits="userSpaceOnUse">
<stop stop-color="white"/>
<stop offset="0.18" stop-color="#E46342"/>
<stop offset="0.4" stop-color="#C82410"/>
<stop offset="0.99" stop-color="#A80D00"/>
<stop offset="1" stop-color="#A80D00"/>
</linearGradient>
<linearGradient id="paint6_linear" x1="45.3141" y1="4.39574" x2="60.4317" y2="-3.16309" gradientUnits="userSpaceOnUse">
<stop stop-color="white"/>
<stop offset="0.54" stop-color="#C81F11"/>
<stop offset="0.99" stop-color="#BF0905"/>
<stop offset="1" stop-color="#BF0905"/>
</linearGradient>
<linearGradient id="paint7_linear" x1="1.48664" y1="43.2494" x2="2.7309" y2="55.7069" gradientUnits="userSpaceOnUse">
<stop stop-color="white"/>
<stop offset="0.31" stop-color="#DE4024"/>
<stop offset="0.99" stop-color="#BF190B"/>
<stop offset="1" stop-color="#BF190B"/>
</linearGradient>
<linearGradient id="paint8_linear" x1="-7.06733" y1="59.0743" x2="51.4229" y2="-1.07005" gradientUnits="userSpaceOnUse">
<stop stop-color="#BD0012"/>
<stop offset="0.07" stop-color="white"/>
<stop offset="0.17" stop-color="white"/>
<stop offset="0.27" stop-color="#C82F1C"/>
<stop offset="0.33" stop-color="#820C01"/>
<stop offset="0.46" stop-color="#A31601"/>
<stop offset="0.72" stop-color="#B31301"/>
<stop offset="0.99" stop-color="#E82609"/>
<stop offset="1" stop-color="#E82609"/>
</linearGradient>
<linearGradient id="paint9_linear" x1="37.7343" y1="65.1411" x2="20.1165" y2="60.7929" gradientUnits="userSpaceOnUse">
<stop stop-color="#8C0C01"/>
<stop offset="0.54" stop-color="#990C00"/>
<stop offset="0.99" stop-color="#A80D0E"/>
<stop offset="1" stop-color="#A80D0E"/>
</linearGradient>
<linearGradient id="paint10_linear" x1="67.9949" y1="43.9958" x2="52.3438" y2="29.9681" gradientUnits="userSpaceOnUse">
<stop stop-color="#7E110B"/>
<stop offset="0.99" stop-color="#9E0C00"/>
<stop offset="1" stop-color="#9E0C00"/>
</linearGradient>
<linearGradient id="paint11_linear" x1="73.745" y1="18.2575" x2="65.9489" y2="9.92291" gradientUnits="userSpaceOnUse">
<stop stop-color="#79130D"/>
<stop offset="0.99" stop-color="#9E120B"/>
<stop offset="1" stop-color="#9E120B"/>
</linearGradient>
<radialGradient id="paint12_radial" cx="0" cy="0" r="1" gradientUnits="userSpaceOnUse" gradientTransform="translate(54.7808 30.2364) scale(19.1796)">
<stop stop-color="#A80D00"/>
<stop offset="0.99" stop-color="#7E0E08"/>
<stop offset="1" stop-color="#7E0E08"/>
</radialGradient>
<radialGradient id="paint13_radial" cx="0" cy="0" r="1" gradientUnits="userSpaceOnUse" gradientTransform="translate(28.2194 55.5119) scale(25.4967)">
<stop stop-color="#A30C00"/>
<stop offset="0.99" stop-color="#800E08"/>
<stop offset="1" stop-color="#800E08"/>
</radialGradient>
<linearGradient id="paint14_linear" x1="10.1576" y1="75.159" x2="3.80424" y2="53.6041" gradientUnits="userSpaceOnUse">
<stop stop-color="#8B2114"/>
<stop offset="0.43" stop-color="#9E100A"/>
<stop offset="0.99" stop-color="#B3100C"/>
<stop offset="1" stop-color="#B3100C"/>
</linearGradient>
<linearGradient id="paint15_linear" x1="58.8979" y1="3.73165" x2="73.1416" y2="10.019" gradientUnits="userSpaceOnUse">
<stop stop-color="#B31000"/>
<stop offset="0.44" stop-color="#910F08"/>
<stop offset="0.99" stop-color="#791C12"/>
<stop offset="1" stop-color="#791C12"/>
</linearGradient>
<clipPath id="clip0">
<rect width="75.4614" height="75.2519" fill="white"/>
</clipPath>
</defs>
</svg>
