<svg viewBox="0 0 710 489" fill="none" xmlns="http://www.w3.org/2000/svg">
<path d="M358.216 195.677L359.209 195.752L388.088 27.6863L365.611 196.136L366.582 196.358L420.672 31.711L372.896 197.127L373.825 197.487L452.279 38.3025L379.988 198.642L380.86 199.126L482.477 47.3069L386.809 200.665L387.612 201.257L510.9 58.5271L393.281 203.174L394.008 203.857L537.241 71.7466L399.333 206.139L399.98 206.898L561.252 86.7376L404.896 209.529L405.463 210.35L582.748 103.268L409.909 213.304L410.396 214.176L601.578 121.116L414.317 217.423L414.726 218.334L617.639 140.066L418.072 221.837L418.403 222.779L630.856 159.912L421.133 226.499L421.389 227.465L641.177 180.46L423.467 231.357L423.649 232.339L648.569 201.524L425.049 236.356L425.157 237.349L653.011 222.928L425.862 241.442L425.898 242.441L654.493 244.5L425.898 246.559L425.862 247.558L653.011 266.072L425.157 251.651L425.049 252.644L648.569 287.476L423.649 256.661L423.467 257.643L641.177 308.54L421.389 261.535L421.133 262.501L630.855 329.088L418.403 266.221L418.072 267.163L617.639 348.934L414.726 270.666L414.317 271.577L601.578 367.884L410.396 274.824L409.909 275.696L582.748 385.732L405.463 278.65L404.896 279.471L561.253 402.263L399.98 282.102L399.333 282.861L537.241 417.254L394.008 285.143L393.281 285.826L510.9 430.473L387.612 287.743L386.809 288.335L482.478 441.693L380.86 289.874L379.988 290.358L452.279 450.698L373.825 291.513L372.896 291.872L420.672 457.289L366.582 292.642L365.611 292.864L388.088 461.314L359.209 293.248L358.216 293.323L355 462.667L351.784 293.323L350.791 293.248L321.912 461.314L344.389 292.864L343.418 292.642L289.328 457.289L337.104 291.872L336.175 291.513L257.721 450.698L330.012 290.358L329.14 289.874L227.522 441.693L323.191 288.335L322.388 287.743L199.1 430.472L316.719 285.826L315.992 285.143L172.759 417.253L310.667 282.861L310.02 282.102L148.746 402.263L305.104 279.471L304.537 278.65L127.253 385.732L300.091 275.696L299.604 274.824L108.422 367.884L295.683 271.577L295.274 270.666L92.361 348.934L291.928 267.163L291.597 266.221L79.1449 329.088L288.867 262.501L288.611 261.535L68.8234 308.54L286.533 257.643L286.351 256.661L61.4308 287.476L284.951 252.644L284.843 251.651L56.9886 266.072L284.138 247.558L284.102 246.559L55.5072 244.5L284.102 242.441L284.138 241.442L56.9893 222.928L284.843 237.349L284.951 236.356L61.431 201.524L286.351 232.339L286.533 231.357L68.8226 180.46L288.611 227.465L288.867 226.499L79.1442 159.912L291.597 222.779L291.928 221.837L92.361 140.066L295.274 218.334L295.683 217.423L108.422 121.116L299.604 214.176L300.091 213.304L127.253 103.268L304.537 210.35L305.104 209.529L148.747 86.7369L310.02 206.898L310.667 206.139L172.759 71.7468L315.992 203.857L316.719 203.174L199.1 58.5277L322.388 201.257L323.191 200.665L227.522 47.3067L329.14 199.126L330.012 198.642L257.721 38.3025L336.175 197.487L337.104 197.127L289.328 31.711L343.418 196.358L344.389 196.136L321.912 27.6863L350.791 195.752L351.784 195.677L355 26.3334L358.216 195.677Z" stroke="#3431DC"/>
</svg>
