<svg viewBox="0 0 794 547" fill="none" xmlns="http://www.w3.org/2000/svg">
<path d="M400.656 218.899L401.648 218.974L434.478 27.918L408.925 219.422L409.896 219.644L471.405 32.4164L417.07 220.539L417.999 220.899L507.258 39.7915L424.999 222.241L425.87 222.725L541.561 49.8805L432.623 224.51L433.425 225.102L573.9 62.4758L439.856 227.322L440.583 228.005L603.928 77.3443L446.619 230.643L447.267 231.402L631.356 94.2409L452.835 234.438L453.403 235.26L655.96 112.912L458.437 238.664L458.924 239.535L677.556 133.114L463.362 243.272L463.77 244.183L696.012 154.603L467.556 248.211L467.888 249.153L711.225 177.146L470.975 253.426L471.231 254.391L723.122 200.521L473.581 258.859L473.762 259.842L731.651 224.51L475.345 264.451L475.454 265.444L736.781 248.904L476.251 270.14L476.287 271.138L738.494 273.5L476.287 275.862L476.251 276.86L736.782 298.096L475.454 281.556L475.345 282.549L731.651 322.49L473.762 287.158L473.581 288.141L723.121 346.479L471.231 292.609L470.975 293.574L711.224 369.853L467.888 297.847L467.556 298.789L696.012 392.397L463.77 302.817L463.362 303.728L677.557 413.887L458.924 307.465L458.437 308.336L655.96 434.088L453.403 311.74L452.835 312.562L631.356 452.759L447.267 315.598L446.619 316.357L603.928 469.656L440.583 318.995L439.856 319.678L573.9 484.524L433.425 321.898L432.623 322.49L541.561 497.119L425.87 324.275L424.999 324.759L507.258 507.209L417.999 326.101L417.07 326.461L471.405 514.584L409.896 327.356L408.925 327.578L434.478 519.082L401.648 328.026L400.656 328.101L397 520.593L393.344 328.101L392.352 328.026L359.522 519.082L385.075 327.578L384.104 327.356L322.595 514.584L376.93 326.461L376.001 326.101L286.742 507.209L369.001 324.759L368.13 324.275L252.44 497.119L361.377 322.49L360.575 321.898L220.1 484.523L354.144 319.678L353.417 318.995L190.072 469.656L347.381 316.357L346.733 315.598L162.643 452.76L341.165 312.562L340.597 311.74L138.041 434.088L335.563 308.336L335.076 307.465L116.443 413.887L330.638 303.728L330.23 302.817L97.988 392.397L326.444 298.789L326.112 297.847L82.7759 369.853L323.025 293.574L322.769 292.609L70.8793 346.479L320.419 288.141L320.238 287.158L62.3488 322.49L318.655 282.549L318.546 281.556L57.2182 298.096L317.749 276.86L317.713 275.862L55.5058 273.5L317.713 271.138L317.749 270.14L57.2189 248.904L318.546 265.444L318.655 264.451L62.3488 224.51L320.238 259.842L320.419 258.859L70.8785 200.521L322.769 254.391L323.025 253.426L82.7752 177.146L326.112 249.153L326.444 248.211L97.988 154.603L330.23 244.183L330.638 243.272L116.444 133.114L335.076 239.535L335.563 238.664L138.041 112.913L340.597 235.26L341.165 234.438L162.644 94.2403L346.733 231.402L347.381 230.643L190.072 77.3446L353.417 228.005L354.144 227.322L220.1 62.4764L360.575 225.102L361.377 224.51L252.439 49.8808L368.13 222.725L369.001 222.241L286.742 39.7915L376.001 220.899L376.93 220.539L322.595 32.4164L384.104 219.644L385.075 219.422L359.522 27.918L392.352 218.974L393.344 218.899L397 26.4065L400.656 218.899Z" stroke="#3431DC"/>
</svg>
