<svg width="26" height="22" viewBox="0 0 26 22" fill="none" xmlns="http://www.w3.org/2000/svg">
<path d="M10.0834 13.8093L9.93299 13.9443L9.91866 14.1459L9.52165 19.7299L9.48358 20.2653H10.0204C10.3839 20.2653 10.6749 20.1852 10.927 20.0399C11.1538 19.9092 11.3293 19.7346 11.4665 19.5982C11.4705 19.5943 11.4745 19.5903 11.4784 19.5864L13.8351 17.3342L19.0152 21.1277L19.0402 21.146L19.0672 21.1611C19.6317 21.4757 20.2429 21.6242 20.7931 21.375C21.3413 21.1267 21.6454 20.566 21.7962 19.9044L21.7962 19.9044L21.7977 19.8977L25.3889 3.07028L25.3897 3.0695L25.4206 2.9253C25.5996 2.09124 25.4794 1.36092 25.0051 0.904499C24.5248 0.442322 23.8394 0.411094 23.2303 0.63781L23.2303 0.63779L23.2259 0.639456L1.93544 8.79041L1.93543 8.79041L1.93328 8.79124C1.53691 8.9451 1.20868 9.12759 0.96664 9.33962C0.727404 9.54919 0.533173 9.82407 0.503737 10.1578C0.472851 10.508 0.632983 10.8034 0.860495 11.0161C1.08071 11.2219 1.38121 11.3712 1.71917 11.4759L7.16183 13.1688L7.38098 13.2369L7.57554 13.1152L18.3983 6.34334L10.0834 13.8093Z" stroke="white"/>
</svg>
