<svg width="1439" height="293" viewBox="0 0 1439 293" fill="none" xmlns="http://www.w3.org/2000/svg">
<path d="M0 292C479.321 292 958.641 292 1437.96 292" stroke="#3431DC" stroke-miterlimit="10"/>
<path d="M0 283.838C242.716 283.898 485.312 282.439 727.968 280.788C832.959 280.069 938.669 280.305 1043.65 281.819C1175.06 283.712 1306.54 281.929 1437.92 283.838" stroke="#3431DC" stroke-miterlimit="10"/>
<path d="M0 275.796C68.7725 275.796 137.565 276.087 206.328 275.944C267.78 275.818 329.093 273.081 390.526 272.609C504.964 271.732 619.382 272.752 733.81 271.715C835.376 270.794 937.99 268.353 1039.49 272.077C1098.64 274.271 1157.19 275.27 1216.4 276.175C1290.29 277.305 1364.1 274.238 1437.96 275.796" stroke="#3431DC" stroke-miterlimit="10"/>
<path d="M0 267.864C67.7839 267.864 135.748 268.49 203.512 267.815C267.191 267.179 330.501 262.719 394.131 261.573C508.789 259.505 622.547 265.412 737.085 264.359C837.872 263.449 937.231 256.054 1038.13 262.67C1097.1 266.537 1154.25 269.565 1213.66 270.448C1288.55 271.545 1363.08 266.208 1437.96 267.864" stroke="#3431DC" stroke-miterlimit="10"/>
<path d="M0 260.086C66.5557 260.086 133.601 261.084 200.106 259.708C266.612 258.331 332.169 251.995 398.475 249.949C458.75 248.089 518.175 248.589 578.13 252.637C631.864 256.268 684.06 258.89 738.233 258.495C785.716 258.144 830.203 254.184 877.097 250.492C930.761 246.263 986.012 248.238 1039.18 253.624C1097.69 259.559 1152.89 265.237 1212.64 265.884C1288.01 266.707 1362.54 258.665 1437.96 260.086" stroke="#3431DC" stroke-miterlimit="10"/>
<path d="M0 252.417C65.1177 252.417 131.224 253.761 196.232 251.611C265.693 249.318 333.977 241.013 403.288 237.898C462.799 235.188 522.708 237.045 581.286 243.416C633.582 249.022 684.14 254.03 737.594 253.8C787.094 253.586 831.881 246.702 879.933 241.134C934.475 234.815 988.449 237.212 1042.16 244.875C1099.73 253.103 1152.88 261.968 1213.04 262.203C1288.54 262.505 1362.33 251.496 1437.96 252.423" stroke="#3431DC" stroke-miterlimit="10"/>
<path d="M0 244.87C63.5799 244.837 128.718 246.515 192.078 243.581C264.815 240.24 335.874 229.933 408.341 225.627C469.155 222.017 525.355 225.375 584.012 234.442C634.231 242.209 682.872 249.987 735.547 250.004C787.633 250.004 833.968 239.664 883.398 232.116C939.708 223.52 991.634 226.022 1046.66 236.406C1102.66 246.97 1154.07 259.444 1214.57 259.17C1289.96 258.797 1362.36 244.617 1437.96 244.87" stroke="#3431DC" stroke-miterlimit="10"/>
<path d="M0 237.442C61.9721 237.393 126.131 239.258 187.734 235.648C263.806 231.194 337.522 218.896 413.324 213.345C474.987 208.83 528.511 213.657 586.219 225.736C633.831 235.703 680.595 246.504 732.412 246.844C787.174 247.206 836.544 233.004 887.192 223.443C945.679 212.401 995.619 214.749 1052.14 228.205C1105.96 241.019 1156.15 257.469 1216.9 256.548C1292.03 255.407 1362.52 237.969 1437.94 237.442" stroke="#3431DC" stroke-miterlimit="10"/>
<path d="M0 230.136C60.3844 230.07 123.545 232.056 183.48 227.848C262.807 222.281 339.189 208.052 418.147 201.261C481.058 195.847 531.546 202.045 588.036 217.306C632.713 229.373 677.589 243.312 728.687 244.047C786.126 244.864 839.46 226.417 891.276 215.078C918.418 209.171 947.027 203.636 976.616 204.909C1005.57 206.159 1033 212.857 1058.32 220.268C1109.37 235.171 1159.1 255.687 1219.84 254.118C1294.63 252.182 1362.77 231.496 1437.97 230.152" stroke="#3431DC" stroke-miterlimit="10"/>
<path d="M0.0493164 222.955C58.9658 222.873 121.098 224.908 179.395 220.213C261.748 213.597 340.517 197.53 422.401 189.566C486.749 183.301 534.322 190.756 589.284 209.16C630.955 223.114 673.954 240.168 724.592 241.326C784.507 242.692 842.425 219.905 895.23 207.009C922.891 200.251 953.398 193.126 984.294 194.695C1013.25 196.165 1040.38 204.195 1064.6 212.522C1112.88 229.132 1162.1 253.789 1223 251.589C1297.47 248.89 1362.98 225.062 1437.98 222.955" stroke="#3431DC" stroke-miterlimit="10"/>
<path d="M0.0600586 215.901C57.5685 215.802 118.782 217.837 175.591 212.796C260.631 205.243 341.516 187.481 425.936 178.452C458.081 175.018 488.548 173.033 520.033 179.056C545.687 183.965 568.255 192.583 590.024 201.293C628.968 216.866 670.08 236.839 720.599 238.402C782.711 240.327 845.282 213.411 898.946 199.198C927.086 191.743 959.47 183.109 991.545 184.936C1020.63 186.582 1047.41 195.835 1070.58 204.974C1116.3 222.988 1164.93 251.501 1226.15 248.742C1300.36 245.39 1363.15 218.611 1438.02 215.874" stroke="#3431DC" stroke-miterlimit="10"/>
<path d="M0.0698242 208.962C56.37 208.858 116.754 210.882 172.256 205.611C259.452 197.328 341.875 178.041 428.423 168.162C460.677 164.481 491.054 162.199 522.379 169.034C547.793 174.613 569.453 184.185 590.163 193.751C626.821 210.663 666.215 233.142 716.984 235.034C749.428 236.247 782.051 226.949 810.072 219.077C841.157 210.345 871.045 200.394 902.121 191.65C930.681 183.62 964.632 173.768 997.785 175.825C1027.08 177.641 1053.44 187.838 1075.78 197.657C1119.4 216.856 1167.12 248.594 1228.93 245.38C1303 241.54 1363.17 212.094 1438.03 208.94" stroke="#3431DC" stroke-miterlimit="10"/>
<path d="M0.079834 202.149C55.3715 202.045 115.117 204.075 169.55 198.704C258.284 189.955 341.666 169.352 429.661 158.858C461.765 155.019 492.372 152.567 523.378 159.89C548.762 165.885 569.772 176.28 589.734 186.505C624.864 204.491 662.77 228.836 714.158 230.937C747.49 232.286 781.063 222.215 809.522 213.888C841.647 204.48 872.433 193.773 904.558 184.355C933.517 175.858 968.467 165.233 1002.51 167.399C1032.12 169.286 1058.02 180.12 1079.76 190.504C1122.03 210.684 1168.28 244.699 1231.08 241.271C1305.16 237.228 1363.03 205.418 1438.04 202.171" stroke="#3431DC" stroke-miterlimit="10"/>
<path d="M0.0998535 195.457C54.6126 195.37 113.988 197.438 167.622 192.111C257.105 183.225 340.717 161.541 429.391 150.762C461.056 146.923 492.232 144.421 522.799 151.794C548.393 157.965 569.113 168.919 588.705 179.577C623.276 198.414 660.064 223.735 712.53 225.775C746.602 227.103 780.264 216.927 809.123 208.222C841.926 198.348 873.282 187.092 906.075 177.207C935.404 168.365 970.504 157.57 1005.24 159.72C1035.2 161.574 1060.67 172.605 1082.14 183.433C1124.08 204.58 1168.12 239.456 1232.39 236.06C1306.66 232.138 1362.78 198.37 1438.1 195.468" stroke="#3431DC" stroke-miterlimit="10"/>
<path d="M0.109863 188.875C54.4229 188.688 113.609 191.014 167.013 185.583C255.887 176.527 338.43 154.196 426.406 143.165C457.981 139.21 489.137 136.84 519.683 144.125C545.646 150.329 566.777 161.415 586.658 172.204C621.868 191.316 659.046 216.96 712.2 219.351C746.512 220.893 779.974 210.844 808.963 202.001C841.817 191.974 873.112 180.498 905.956 170.466C935.424 161.459 970.344 150.811 1005.34 153.115C1035.5 155.101 1060.82 166.154 1082.33 177.103C1124.44 198.545 1167.64 232.961 1232.42 229.763C1306.9 226.098 1362.44 191.409 1438.07 188.875" stroke="#3431DC" stroke-miterlimit="10"/>
<path d="M0.119629 182.44C54.6623 182.1 113.669 185.035 167.263 179.226C254.559 169.763 335.245 147.065 421.612 135.644C453.567 131.415 483.904 129.215 514.89 136.549C541.322 142.797 563.201 153.768 583.812 164.464C620.191 183.367 658.936 209.269 712.09 212.533C746.192 214.628 779.774 204.552 808.514 195.715C840.968 185.737 871.794 174.25 904.238 164.261C933.646 155.205 968.567 144.64 1003.52 147.377C1033.58 149.731 1059.27 160.943 1081.08 171.771C1123.41 192.78 1167.86 226.548 1231.86 223.443C1306.52 219.817 1362.24 184.93 1438.05 182.44" stroke="#3431DC" stroke-miterlimit="10"/>
<path d="M0.139893 176.116C54.9921 175.71 113.839 179.462 167.762 173.313C253.281 163.56 331.86 140.565 416.41 128.881C448.634 124.416 478.262 122.425 509.598 129.666C536.44 135.869 559.197 146.555 580.577 157.169C618.174 175.82 658.706 201.628 711.811 205.682C745.603 208.266 778.926 198.397 807.405 189.599C839.31 179.725 869.487 168.31 901.372 158.442C930.691 149.369 965.282 139.106 1000.07 142.233C1030.17 144.942 1056.31 156.204 1078.61 166.917C1121.5 187.487 1167.42 220.41 1230.93 217.349C1305.91 213.74 1361.94 178.628 1438.08 176.149" stroke="#3431DC" stroke-miterlimit="10"/>
<path d="M0.159668 169.912C55.3914 169.522 114.208 174.267 168.511 167.805C252.073 157.871 328.364 134.641 410.927 122.754C443.282 118.097 472.35 116.347 503.946 123.379C531.267 129.457 554.873 139.835 577.082 150.258C616.246 168.573 658.197 194.009 711.451 198.809C744.844 201.815 777.578 192.374 805.778 183.636C836.983 173.96 866.392 162.644 897.578 152.956C926.786 143.878 960.708 134.125 995.289 137.597C1025.53 140.642 1052.21 151.859 1075.18 162.424C1118.92 182.539 1166.48 214.453 1229.65 211.409C1305.09 207.772 1361.55 172.424 1438.15 169.928" stroke="#3431DC" stroke-miterlimit="10"/>
<path d="M0.169678 163.828C55.8507 163.521 114.647 169.407 169.44 162.665C250.904 152.644 324.77 129.205 405.205 117.252C437.54 112.436 466.209 110.938 497.964 117.663C525.775 123.555 550.21 133.571 573.327 143.675C614.269 161.574 657.498 186.401 710.952 191.892C775.461 198.523 840.648 164.009 892.924 147.74C922.023 138.678 955.026 129.6 989.307 133.401C1019.78 136.785 1047.03 147.893 1070.78 158.299C1115.64 177.942 1164.97 208.715 1227.98 205.654C1303.98 201.968 1360.98 166.363 1438.13 163.828" stroke="#3431DC" stroke-miterlimit="10"/>
<path d="M0.189697 157.871C56.3601 157.701 115.167 164.849 170.528 157.871C249.806 147.844 321.125 124.295 399.324 112.304C431.548 107.367 459.938 106.139 491.783 112.474C520.103 118.119 545.387 127.691 569.413 137.477C612.132 154.865 656.649 178.864 710.373 185.035C773.903 192.32 836.284 158.804 887.592 142.798C915.961 133.961 949.035 125.052 982.377 129.605C1013.33 133.829 1040.6 144.07 1065.71 154.492C1111.85 173.636 1163.08 203.164 1226.09 200.071C1302.74 196.313 1360.35 160.439 1438.15 157.833" stroke="#3431DC" stroke-miterlimit="10"/>
<path d="M0.209717 152.029C56.9093 152.029 115.776 160.548 171.757 153.313C248.777 143.357 317.48 119.709 393.372 107.784C525.186 87.0548 593.948 163.582 709.734 178.228C772.145 186.132 831.371 153.823 881.75 138.14C909.99 129.364 941.785 121.371 974.708 126.182C1006.05 130.762 1033.96 140.779 1060.08 151.004C1107.66 169.654 1160.87 197.838 1224.01 194.695C1301.38 190.855 1359.66 154.701 1438.18 152.029" stroke="#3431DC" stroke-miterlimit="10"/>
<path d="M0.229736 146.313C57.4786 146.544 116.445 156.461 173.095 149.012C247.819 139.188 313.895 115.485 387.421 103.664C516.508 82.9187 595.126 155.776 709.045 171.469C770.378 179.928 826.049 149.051 875.509 133.67C903.629 124.926 934.036 117.987 966.49 123.017C998.255 127.954 1026.87 137.718 1054.04 147.729C1103.15 165.83 1158.39 192.659 1221.8 189.445C1299.92 185.49 1358.93 149.073 1438.21 146.313" stroke="#3431DC" stroke-miterlimit="10"/>
<path d="M0.249512 140.719C58.0675 141.185 117.154 152.551 174.512 144.915C246.95 135.272 310.32 111.542 381.569 99.8799C507.92 79.1945 596.265 148.069 708.336 164.81C768.57 173.806 820.457 144.449 869.048 129.369C897.068 120.675 925.967 114.85 957.922 120.044C990.126 125.305 1019.48 134.855 1047.72 144.619C1098.41 162.172 1155.69 187.602 1219.42 184.317C1298.31 180.241 1358.1 143.549 1438.17 140.697" stroke="#3431DC" stroke-miterlimit="10"/>
<path d="M0.269531 135.244C58.6468 135.952 117.903 148.771 176.02 140.976C246.221 131.552 306.975 107.812 375.927 96.3472C499.592 75.7825 597.383 140.521 707.617 158.266C766.763 167.789 814.755 139.994 862.517 125.206C890.418 116.566 917.909 111.887 949.334 117.269C981.988 122.864 1012.12 132.172 1041.41 141.695C1093.69 158.7 1152.99 182.726 1217.11 179.358C1296.83 175.167 1357.37 138.217 1438.23 135.244" stroke="#3431DC" stroke-miterlimit="10"/>
<path d="M0.289551 129.896C59.206 130.839 118.662 145.079 177.448 137.153C245.492 127.976 303.679 104.241 370.435 93.0012C491.653 72.5955 598.512 133.121 706.958 151.859C765.025 161.898 809.113 135.667 856.096 121.141C883.877 112.557 910.02 109.024 940.846 114.559C973.949 120.494 1004.84 129.589 1035.18 138.848C1089 155.271 1150.27 177.942 1214.84 174.503C1295.35 170.197 1356.64 132.946 1438.29 129.907" stroke="#3431DC" stroke-miterlimit="10"/>
<path d="M0.30957 124.663C59.8152 125.831 119.411 141.437 178.916 133.401C244.913 124.487 300.644 100.769 365.322 89.7703C484.214 69.5512 599.62 125.875 706.249 145.606C763.348 156.171 803.491 131.393 849.825 117.159C877.516 108.657 902.291 106.188 932.598 111.882C966.13 118.157 997.766 127.071 1029.1 136.062C1084.39 151.92 1147.55 173.258 1212.57 169.731C1293.85 165.315 1355.85 127.795 1438.25 124.663" stroke="#3431DC" stroke-miterlimit="10"/>
<path d="M0.32959 119.556C60.3944 120.916 120.16 137.806 180.334 129.687C244.444 121.042 297.868 97.3234 360.609 86.583C421.473 76.1608 486.221 87.9269 543.07 100.499C597.892 112.628 650.009 128.535 705.65 139.534C762.03 150.68 797.989 127.071 843.974 113.204C905.037 94.8001 967.578 118.14 1023.47 133.275C1080.1 148.59 1145.04 168.655 1210.48 165.052C1292.48 160.543 1355.16 122.759 1438.29 119.55" stroke="#3431DC" stroke-miterlimit="10"/>
<path d="M0.349365 114.564C60.9734 116.083 120.749 134.141 181.692 125.963C244.094 117.581 295.391 93.8785 356.445 83.374C416.749 72.9846 483.205 84.2681 540.324 95.7819C596.255 107.06 649.489 121.953 705.12 133.67C760.751 145.386 793.245 122.935 838.641 109.265C898.316 91.3003 963.464 116.396 1018.39 130.466C1076.2 145.277 1142.79 164.124 1208.6 160.471C1291.23 155.88 1354.53 117.844 1438.27 114.564" stroke="#3431DC" stroke-miterlimit="10"/>
<path d="M0.369629 109.699C61.5629 111.344 121.288 130.412 182.941 122.183C243.854 114.06 293.264 90.3682 352.7 80.0666C412.545 69.7266 480.519 80.5493 537.898 91.1087C594.817 101.591 649.12 115.59 704.661 128.025C730.864 133.889 750.067 134.131 775.401 126.566C795.992 120.417 813.407 111.487 833.968 105.294C861.399 97.0219 883.248 97.2523 911.977 103.401C946.498 110.801 980.131 119.309 1014 127.576C1072.79 141.881 1140.82 159.632 1206.93 155.946C1290.13 151.305 1353.96 113.017 1438.3 109.699" stroke="#3431DC" stroke-miterlimit="10"/>
<path d="M0.389404 104.948C62.1518 106.594 121.697 126.571 184.069 118.316C243.774 110.411 291.497 86.6323 349.734 76.594C409.27 66.3308 478.492 76.7037 536.1 86.4677C593.708 96.2317 649.02 109.506 704.381 122.671C729.965 128.755 748.669 129.616 773.783 122.09C793.695 116.122 810.311 107.312 830.173 101.3C857.454 93.0392 878.964 93.9169 907.194 100.269C941.885 108.075 976.036 116.566 1010.55 124.602C1070.07 138.458 1139.43 155.222 1205.64 151.524C1289.3 146.856 1353.56 108.338 1438.31 104.997" stroke="#3431DC" stroke-miterlimit="10"/>
<path d="M0.409424 100.329C62.751 101.931 121.957 122.6 185.028 114.323C243.844 106.594 290.079 82.6335 347.507 72.8915C406.963 62.7929 476.934 72.694 534.902 81.7614C593.339 90.8945 649.13 103.615 704.262 117.504C729.326 123.812 747.82 125.14 772.745 117.614C792.117 111.772 808.064 103.017 827.377 97.1205C854.529 88.832 876.018 90.176 903.819 96.7694C938.559 104.997 973.111 113.511 1008.15 121.377C1068.07 134.833 1138.59 150.729 1204.74 147.059C1288.73 142.397 1353.3 103.659 1438.41 100.329" stroke="#3431DC" stroke-miterlimit="10"/>
<path d="M0.429443 95.8261C63.3403 97.2797 122.037 118.448 185.807 110.148C244.014 102.573 289.25 78.5087 345.99 68.8819C405.256 58.8326 476.145 68.5198 534.263 77.0222C593.299 85.6617 649.34 98.0367 704.212 112.677C728.867 119.26 747.46 120.85 772.255 113.275C791.228 107.477 806.676 98.7169 825.62 92.864C852.671 84.5043 874.46 86.0841 901.931 92.9792C936.602 101.679 971.413 110.253 1006.84 117.987C1066.94 131.103 1138.28 146.286 1204.16 142.671C1288.35 138.058 1353.08 99.1119 1438.39 95.8261" stroke="#3431DC" stroke-miterlimit="10"/>
<path d="M0.459473 91.4378C63.6898 92.7433 121.977 114.142 186.136 105.766C244.144 98.1958 289.11 74.1533 345.67 64.5813C404.876 54.565 476.085 64.4497 534.223 72.771C593.469 81.2514 649.33 93.5332 704.272 108.24C728.837 114.822 747.69 116.193 772.315 108.667C791.159 102.908 806.507 94.2244 825.35 88.4482C852.312 80.1872 874.5 81.7232 901.712 88.8158C936.233 97.8118 971.084 106.451 1006.66 114.109C1066.47 126.983 1138.74 141.997 1204.11 138.245C1288.18 133.428 1353.33 95.1404 1438.42 91.4542" stroke="#3431DC" stroke-miterlimit="10"/>
<path d="M0.479248 87.1205C63.8494 88.3602 121.967 109.901 186.276 101.426C244.194 93.7908 289.39 69.9512 345.989 60.4396C405.196 50.4891 476.245 60.8071 534.293 69.1833C593.349 77.7076 648.97 89.9674 704.292 103.977C756.657 117.235 782.611 96.8461 825.739 84.131C852.701 76.1827 875.03 77.6308 901.991 84.7508C936.363 93.8291 971.153 102.447 1006.72 110.017C1066.18 122.666 1139.38 137.751 1204.29 133.681C1288 128.426 1353.95 91.6953 1438.47 87.2028" stroke="#3431DC" stroke-miterlimit="10"/>
<path d="M0.499268 82.8697C64.0592 84.0655 122.037 105.766 186.546 97.2195C244.463 89.5399 289.839 65.9527 346.469 56.5288C405.675 46.6551 476.514 57.3681 534.472 65.7717C593.299 74.3015 648.71 86.5065 704.351 99.8086C756.278 112.227 783.16 92.2003 826.319 80.0612C853.28 72.4584 875.808 73.8627 902.531 80.9937C936.742 90.1214 971.433 98.6731 1006.99 106.111C1066.21 118.503 1140.14 133.429 1204.51 129.084C1287.8 123.467 1354.56 88.3331 1438.46 83.1275" stroke="#3431DC" stroke-miterlimit="10"/>
<path d="M0.519287 78.6953C64.2989 79.8582 122.187 101.734 186.935 93.1493C244.783 85.4807 290.428 62.1623 347.098 52.8371C406.304 43.128 476.914 54.1097 534.762 62.5188C593.309 71.0212 648.601 83.1329 704.441 95.7C755.998 107.291 783.799 87.7078 827.068 76.1336C854.099 68.9093 876.797 70.3136 903.319 77.4391C937.341 86.5833 971.962 95.0362 1007.46 102.299C1066.53 114.394 1140.91 128.952 1204.84 124.383C1287.72 118.464 1355.25 84.9815 1438.51 79.1341" stroke="#3431DC" stroke-miterlimit="10"/>
<path d="M0.539062 74.592C64.5883 75.7439 122.366 97.7897 187.444 89.1996C245.242 81.5749 291.167 58.5198 347.887 49.3811C407.073 39.842 477.323 51.0706 535.151 59.4523C593.379 67.8998 648.501 79.8854 704.571 91.6954C755.739 102.474 784.518 83.407 827.986 72.4582C855.108 65.6234 877.985 67.077 904.338 74.1806C938.094 83.3712 972.732 91.5491 1008.1 98.6784C1067.12 110.439 1141.71 124.46 1205.27 119.682C1287.61 113.522 1355.97 81.7285 1438.5 75.327" stroke="#3431DC" stroke-miterlimit="10"/>
<path d="M0.569336 70.5655C64.9081 71.7175 122.666 93.9552 188.064 85.3761C245.812 77.8117 292.046 55.0638 348.836 46.1117C408.002 36.7865 477.953 48.1906 535.671 56.5339C593.589 64.8936 648.561 76.7147 704.761 87.7567C755.549 97.7402 785.367 79.2379 829.095 68.9528C856.346 62.5404 879.394 64.0763 905.596 71.147C939.149 80.2767 973.661 88.3014 1008.95 95.1785C1068 106.572 1142.58 119.83 1205.8 114.926C1287.61 108.579 1356.75 78.5248 1438.56 71.6242" stroke="#3431DC" stroke-miterlimit="10"/>
<path d="M0.589111 66.627C65.2574 67.7845 123.006 90.2142 188.772 81.7009C246.481 74.2298 293.045 51.811 349.854 43.0728C408.99 33.978 478.571 45.5193 536.24 53.7912C593.728 62.0193 648.68 73.6538 704.941 83.9115C755.369 93.1105 786.285 75.2391 830.313 65.6506C857.714 59.6825 880.941 61.3336 907.034 68.3933C940.357 77.4358 974.714 85.2799 1009.89 91.8763C1069.03 102.847 1143.39 115.222 1206.34 110.203C1287.58 103.73 1357.47 75.4476 1438.54 68.1246" stroke="#3431DC" stroke-miterlimit="10"/>
<path d="M0.609131 62.7658C65.6369 63.9506 123.435 86.5943 189.581 78.1249C247.249 70.7854 294.153 48.7232 351.022 40.2208C410.119 31.3893 479.321 43.0129 536.859 51.1916C593.948 59.31 648.84 70.6812 705.12 80.149C755.199 88.5691 787.274 71.3724 831.631 62.5189C859.202 57.0335 882.609 58.8108 908.622 65.8102C941.724 74.7454 975.938 82.3801 1011.01 88.6568C1070.34 99.2052 1144.28 110.533 1207 105.426C1287.65 98.8432 1358.25 72.3981 1438.57 64.6966" stroke="#3431DC" stroke-miterlimit="10"/>
<path d="M0.628906 58.9913C66.0462 60.2091 123.834 83.0722 190.47 74.7179C248.098 67.4882 295.371 45.7989 352.3 37.5599C411.347 29.0191 480.119 40.6811 537.578 48.7556C594.267 56.7258 649.11 67.8118 705.34 76.4787C755.079 84.1583 788.382 67.6637 833.089 59.5728C860.849 54.5536 884.436 56.5229 910.389 63.4125C943.26 72.2123 977.312 79.6137 1012.24 85.5516C1071.81 95.6173 1145.15 105.776 1207.69 100.609C1287.74 94.0265 1359.01 69.3971 1438.57 61.3774" stroke="#3431DC" stroke-miterlimit="10"/>
<path d="M0.64917 55.3109C66.4759 56.5726 124.324 79.6551 191.379 71.416C249.037 64.3564 296.68 43.0401 353.679 35.0863C412.665 26.8582 480.958 38.5147 538.417 46.4685C594.687 54.2687 649.489 65.0365 705.66 72.8971C755.06 79.8142 789.661 64.0876 834.737 56.7975C862.697 52.2775 886.453 54.4388 912.387 61.2955C945.019 69.9408 978.9 77.0835 1013.68 82.6501C1073.48 92.2002 1146.08 101.108 1208.48 95.8809C1287.9 89.26 1359.81 66.5505 1438.61 58.2566" stroke="#3431DC" stroke-miterlimit="10"/>
<path d="M0.668945 51.7397C66.905 53.0397 124.823 76.3417 192.467 68.2397C250.035 61.3391 298.077 40.4398 355.136 32.7877C414.053 24.8832 481.877 36.5122 539.205 44.307C595.066 51.9207 649.829 62.332 705.879 69.3917C754.97 75.5792 790.939 60.615 836.364 54.1642C864.524 50.1544 888.47 52.5186 914.414 59.326C946.799 67.7983 980.499 74.6623 1015.11 79.8359C1075.3 88.8319 1146.99 96.3469 1209.3 91.1303C1288.1 84.5478 1360.58 63.7472 1438.63 55.2174" stroke="#3431DC" stroke-miterlimit="10"/>
<path d="M0.688965 48.229C67.4044 49.6058 125.432 73.1327 193.556 65.1843C251.114 58.4757 299.575 37.9932 356.674 30.6593C415.541 23.1059 482.855 34.6691 540.104 42.3322C595.546 49.7539 650.268 59.7702 706.169 66.0291C754.97 71.5145 792.357 57.3567 838.122 51.7671C866.492 48.2838 890.617 50.9004 916.601 57.6145C948.74 65.8968 982.253 72.4638 1016.68 77.2248C1077.23 85.6284 1147.93 91.7007 1210.15 86.4786C1288.34 79.9236 1361.34 61.1087 1438.65 52.3814" stroke="#3431DC" stroke-miterlimit="10"/>
<path d="M0.708984 44.834C67.9037 46.2821 126.031 70.0339 194.724 62.2611C252.232 55.7499 301.083 35.7008 358.282 28.7014C417.069 21.5046 483.864 32.9855 541.023 40.4786C596.065 47.6919 650.718 57.2858 706.439 62.7438C754.99 67.4996 793.825 54.1975 839.939 49.4417C868.509 46.496 892.804 49.3704 918.877 56.0242C950.766 64.1006 984.085 70.3503 1018.31 74.6745C1079.22 82.4418 1148.84 87.0057 1211.03 81.8055C1288.61 75.3273 1362.07 58.4981 1438.67 49.5953" stroke="#3431DC" stroke-miterlimit="10"/>
<path d="M0.729004 41.5425C68.3931 43.0674 126.67 67.044 195.892 59.4577C253.411 53.155 302.671 33.5502 359.94 26.8965C418.647 20.0781 484.913 31.4439 542.032 38.7614C596.684 45.7662 651.257 54.8994 706.798 59.562C755.14 63.6157 795.452 51.1803 841.897 47.3021C870.676 44.894 895.141 48.0426 921.314 54.5977C952.955 62.4652 986.078 68.3923 1020.08 72.2716C1081.41 79.3642 1149.84 82.3702 1212.01 77.2085C1288.9 70.8125 1362.8 56.0129 1438.69 46.962" stroke="#3431DC" stroke-miterlimit="10"/>
<path d="M0.749023 38.3558C68.9024 39.963 127.33 64.1371 197.121 56.7812C254.639 50.6979 304.309 31.5374 361.647 25.2457C420.274 18.8278 486.001 30.0509 543.05 37.1819C597.333 43.9673 651.806 52.6123 707.108 56.485C755.279 59.8585 797.06 48.3062 843.804 45.3057C872.763 43.4462 897.418 46.8801 923.691 53.3528C955.086 60.9965 988.009 66.5843 1021.78 70.001C1083.49 76.3805 1150.72 77.8012 1212.89 72.6778C1289.22 66.3916 1363.41 53.6381 1438.64 44.4555" stroke="#3431DC" stroke-miterlimit="10"/>
<path d="M0.769043 35.2837C69.4217 36.9732 128.019 61.3942 198.369 54.2302C255.877 48.3663 305.986 29.6666 363.395 23.7644C421.922 17.7304 487.1 28.8274 544.139 35.7609C598.062 42.3434 652.415 50.4563 707.487 53.5446C755.569 56.2434 798.778 45.5907 845.881 43.4734C875.05 42.1624 899.805 45.8979 926.327 52.2829C957.48 59.6989 990.202 64.9399 1023.73 67.8834C1164.53 80.6588 1302.5 59.1067 1438.78 42.102" stroke="#3431DC" stroke-miterlimit="10"/>
<path d="M0.788818 32.3107C69.9508 34.0935 128.717 58.7284 199.647 51.7894C257.155 46.1613 307.694 27.9279 365.172 22.3712C423.599 16.7213 488.228 27.6811 545.147 34.4116C598.761 40.7692 652.954 48.3555 707.777 50.6429C755.848 52.667 800.415 42.9634 847.868 41.7017C877.206 40.9338 902.171 44.993 928.843 51.2847C959.64 58.5967 992.343 63.2593 1025.55 65.8374C1162.76 76.4956 1305.88 56.7098 1438.75 39.8202" stroke="#3431DC" stroke-miterlimit="10"/>
<path d="M0.808838 29.4585C70.4801 31.3345 129.427 56.1833 200.935 49.4747C258.454 44.0606 309.411 26.3153 366.96 21.1316C425.287 15.8821 489.356 26.6938 546.216 33.1995C599.54 39.3157 653.544 46.3644 708.116 47.9058C756.278 49.2662 802.103 40.4786 849.915 40.1111C879.423 39.8862 904.548 44.2635 931.43 50.4785C962.026 57.5491 994.51 61.8113 1027.43 63.9287C1090.15 67.9604 1153.75 64.5266 1215.96 59.5952C1290.59 53.6765 1365.33 47.1818 1438.77 37.6536" stroke="#3431DC" stroke-miterlimit="10"/>
<path d="M0.828857 26.7208C70.4102 28.6571 129.277 53.5498 200.716 47.4172C258.004 42.4803 309.062 25.4262 366.161 20.2535C423.879 15.0259 486.66 25.3988 543.02 31.6631C597.503 37.6971 652.695 44.4386 708.466 45.2833C757.976 46.0348 806.217 37.73 855.617 38.7009C885.435 39.2878 910.29 44.6416 937.621 50.5877C966.011 56.7643 995.988 60.3023 1026.31 61.9754C1090.83 65.5354 1154.83 60.2859 1218.59 55.3326C1292.19 49.6168 1366.44 45.2175 1438.82 35.662" stroke="#3431DC" stroke-miterlimit="10"/>
<path d="M0.838867 24.1044C70.8996 26.134 130.006 51.2352 201.974 45.3384C259.273 40.6429 310.74 24.0386 367.928 19.2444C425.527 14.4392 487.808 24.664 544.089 30.7253C598.312 36.5727 653.294 42.7932 708.775 42.7932C758.575 42.7932 807.885 35.5909 857.694 37.4285C887.552 38.5255 912.616 44.1865 940.157 50.0065C968.357 55.9636 998.135 59.1287 1028.19 60.3793C1092.93 63.0727 1155.82 56.1446 1219.57 51.3284C1292.69 45.8046 1366.93 43.4514 1438.8 33.7752" stroke="#3431DC" stroke-miterlimit="10"/>
<path d="M0.858887 21.6141C71.4488 23.737 130.675 49.0411 203.252 43.3747C260.571 38.8986 312.437 22.7606 369.706 18.3393C427.185 13.8907 488.977 24.0441 545.227 29.908C599.151 35.5415 653.923 41.2024 709.115 40.4016C759.274 39.672 809.552 33.5503 859.781 36.2437C889.679 37.8509 914.943 43.8135 942.664 49.5073C970.624 55.2505 1000.26 58.0426 1030.04 58.8709C1094.95 60.6866 1156.8 52.1129 1220.53 47.4284C1293.19 42.0856 1367.32 41.7894 1438.77 31.9925" stroke="#3431DC" stroke-miterlimit="10"/>
<path d="M0.878906 19.2497C71.9581 21.4439 131.434 46.9619 204.52 41.5314C261.849 37.2692 314.115 21.57 371.474 17.5438C428.832 13.5175 490.125 23.5338 546.226 29.1947C600.02 34.6253 654.532 39.7541 709.424 38.1469C760.023 36.6658 811.16 31.6412 861.808 35.1793C891.766 37.2692 917.21 43.5555 945.19 49.1177C973.171 54.6799 1002.43 57.0715 1031.93 57.4884C1096.84 58.4154 1157.87 48.2345 1221.53 43.6816C1293.77 38.5144 1367.84 40.2697 1438.81 30.3302" stroke="#3431DC" stroke-miterlimit="10"/>
<path d="M0.888672 17.0119C72.4572 19.3157 132.143 44.9874 205.748 39.8092C263.107 35.7555 315.752 20.5335 373.191 16.8473C430.39 13.1776 491.303 23.1281 547.304 28.597C600.938 33.8301 655.151 38.4214 709.774 36.0242C760.871 33.7807 812.768 29.8477 863.865 34.2141C893.733 36.7703 919.476 43.3856 947.657 48.8217C975.317 54.1535 1004.58 56.205 1033.75 56.2214C1098.66 56.2653 1158.92 44.5266 1222.49 40.0944C1294.38 35.0807 1368.28 38.8821 1438.81 28.7835" stroke="#3431DC" stroke-miterlimit="10"/>
<path d="M0.898682 14.9111C72.9465 17.2918 132.812 43.1774 206.947 38.1966C264.335 34.3568 317.36 19.5463 374.869 16.2551C432.008 12.9638 492.312 22.8375 548.323 28.1145C601.847 33.1391 655.79 37.2147 710.093 34.0387C761.74 31.0217 814.306 28.1803 865.872 33.3585C895.73 36.348 921.693 43.298 950.083 48.6079C977.614 53.7532 1006.62 55.4372 1035.53 55.0642C1100.34 54.2359 1159.97 40.9942 1223.45 36.6662C1294.93 31.7952 1368.64 37.6426 1438.84 27.341" stroke="#3431DC" stroke-miterlimit="10"/>
<path d="M0.918701 12.9419C73.4159 15.4048 133.491 41.4659 208.115 36.7046C265.534 33.0349 318.958 18.7016 376.496 15.723C433.515 12.7718 493.331 22.6291 549.311 27.7086C602.736 32.5412 656.409 36.1067 710.403 32.1682C762.629 28.3613 815.843 26.595 867.77 32.5686C897.598 35.997 923.78 43.2761 952.42 48.4763C979.781 53.4131 1008.64 54.7735 1037.3 54.022C1101.94 52.338 1161.05 37.6591 1224.42 33.4243C1295.57 28.6685 1369.06 36.5455 1438.92 26.041" stroke="#3431DC" stroke-miterlimit="10"/>
<path d="M0.928711 11.1094C73.8254 13.6491 134.12 39.8967 209.223 35.3274C266.672 31.8277 320.396 17.9277 378.064 15.2783C434.983 12.6672 494.359 22.508 550.25 27.412C603.604 32.102 657.009 35.1299 710.683 30.4454C763.518 25.8376 817.211 25.1245 869.587 31.8716C899.355 35.7114 925.788 43.3196 954.617 48.3991C981.838 53.1933 1010.54 54.1861 1038.9 53.0781C1103.31 50.5603 1162.01 34.5265 1225.26 30.3466C1296.16 25.6786 1369.35 35.5742 1438.9 24.8174" stroke="#3431DC" stroke-miterlimit="10"/>
<path d="M0.938477 9.42578C74.2945 12.0259 134.749 38.449 210.272 34.0607C267.77 30.7256 321.824 17.237 379.552 14.9112C436.381 12.6238 495.298 22.4646 551.138 27.2149C604.443 31.7513 657.588 34.2746 710.962 28.8605C764.336 23.4464 818.559 23.7646 871.345 31.2576C901.042 35.4759 927.735 43.3255 956.724 48.383C983.685 53.095 1012.42 53.6874 1040.43 52.2228C1104.58 48.9316 1162.96 31.6032 1226.08 27.4782C1296.67 22.865 1369.65 34.7628 1438.9 23.7152" stroke="#3431DC" stroke-miterlimit="10"/>
<path d="M0.998535 7.85693C74.754 10.5119 135.338 37.1105 211.31 32.8923C268.789 29.7162 323.162 16.6336 380.96 14.6094C437.659 12.6237 496.197 22.4974 551.977 27.1107C605.252 31.499 658.147 33.545 711.212 27.4178C765.275 21.1809 819.818 22.481 872.982 30.7091C902.62 35.2839 929.542 43.4297 958.701 48.4159C985.553 53.0072 1014.14 53.2705 1041.86 51.5097C1072.11 49.5843 1101.6 45.174 1130.64 40.2811C1161.97 35.0096 1194.22 26.968 1226.86 24.8397C1297.21 20.2484 1369.94 34.121 1438.91 22.7443" stroke="#3431DC" stroke-miterlimit="10"/>
<path d="M0.998535 6.48535C75.1135 9.18416 135.807 35.9529 212.219 31.8772C269.748 28.8054 324.41 16.0848 382.278 14.3624C438.888 12.6564 497.005 22.5905 552.736 27.0885C606.011 31.3781 658.696 32.9414 711.451 26.1231C766.104 19.0579 821.006 21.3014 874.56 30.2426C904.068 35.1794 931.22 43.5721 960.528 48.487C987.27 52.9686 1015.73 52.9356 1043.18 50.8731C1073.37 48.6132 1102.69 43.8189 1131.56 38.6133C1162.66 33.0072 1194.96 24.5487 1227.59 22.404C1297.72 17.8017 1370.22 33.6216 1438.92 21.8554" stroke="#3431DC" stroke-miterlimit="10"/>
<path d="M0.998535 5.24023C75.453 7.98293 136.307 34.9107 213.048 30.9557C270.616 27.9827 325.538 15.646 383.456 14.1705C439.986 12.7278 497.714 22.777 553.405 27.1599C606.69 31.3452 659.185 32.4697 711.631 24.9657C766.913 17.0832 822.065 20.2099 875.998 29.8367C905.396 35.0808 932.748 43.7312 962.206 48.5913C988.838 52.9796 1017.13 52.6724 1044.38 50.3411C1074.5 47.763 1103.67 42.6067 1132.38 37.1158C1163.28 31.2081 1195.61 22.3766 1228.25 20.1989C1298.15 15.5363 1370.48 33.2816 1438.95 21.093" stroke="#3431DC" stroke-miterlimit="10"/>
<path d="M0.998535 4.14844C75.7625 6.89113 136.716 34.0054 213.787 30.1437C271.425 27.2529 326.627 15.2564 384.605 14.0221C441.075 12.8154 498.443 23.0127 554.074 27.3078C607.379 31.4163 659.725 32.1239 711.851 23.9781C767.702 15.2509 822.993 19.2004 877.306 29.4635C906.605 35.0092 934.136 43.8846 963.714 48.7008C990.256 53.0178 1018.45 52.4692 1045.44 49.8911C1075.52 47.0168 1104.52 41.5314 1133.11 35.7772C1163.84 29.5842 1196.19 20.451 1228.87 18.224C1298.63 13.4626 1370.78 33.0894 1438.95 20.4181" stroke="#3431DC" stroke-miterlimit="10"/>
<path d="M0.998535 3.21631C76.0521 5.959 137.066 33.2433 214.436 29.442C272.084 26.6115 327.536 14.9331 385.563 13.8909C441.973 12.898 498.963 23.2764 554.594 27.5111C607.928 31.5703 660.174 31.8994 712.001 23.1228C768.431 13.5618 823.752 18.2572 878.465 29.1567C907.633 34.9712 935.324 44.0496 965.012 48.8328C991.474 53.1004 1019.52 52.3435 1046.33 49.5459C1076.36 46.4028 1105.24 40.6212 1133.71 34.6257C1164.3 28.1803 1196.62 18.8113 1229.39 16.5239C1299 11.6144 1371.06 33.0897 1438.96 19.859" stroke="#3431DC" stroke-miterlimit="10"/>
<path d="M0.998535 2.43701C75.6827 5.17971 136.496 32.464 213.417 28.926C274.201 26.1339 332.958 13.523 394.291 13.7808C446.727 14.0002 499.342 23.4625 551.139 27.5327C606.171 31.8552 658.846 31.7345 712.14 22.4806C771.237 12.2449 826.608 17.6261 883.567 29.7981C909.101 35.2506 933.427 42.6888 959.15 47.7957C986.372 53.1988 1016.26 52.6722 1044.27 49.6717C1076.05 46.2708 1106.48 39.798 1136.46 33.2155C1166.68 26.5563 1198.8 17.1817 1231.38 14.9876C1300.29 10.3744 1371.94 33.1497 1438.95 19.4143" stroke="#3431DC" stroke-miterlimit="10"/>
<path d="M0.998535 1.82275C75.8924 4.52705 136.706 31.9924 213.837 28.4488C274.641 25.6513 333.667 13.3366 394.98 13.748C447.376 14.1045 499.722 23.8301 551.488 27.9058C606.56 32.2393 659.225 31.8114 712.26 21.9541C771.956 10.8517 827.038 16.8637 884.466 29.6337C909.88 35.2836 934.275 42.7877 960.069 47.9C987.23 53.3086 1016.99 52.6723 1044.84 49.5018C1076.6 45.8869 1106.91 39.1344 1136.8 32.3764C1166.98 25.5526 1199.09 16.0738 1231.75 13.7699C1300.53 8.95376 1372.26 33.4351 1438.96 19.0359" stroke="#3431DC" stroke-miterlimit="10"/>
<path d="M0.998535 1.38379C76.0422 4.0442 136.806 31.6741 214.156 28.0757C274.97 25.2452 334.126 13.1938 395.519 13.7369C447.895 14.1977 499.991 24.2359 551.738 28.3445C606.84 32.7328 659.585 32.0362 712.28 21.5865C772.555 9.6393 827.197 16.1559 885.115 29.4635C910.469 35.2835 934.925 42.8643 960.738 48.037C987.879 53.4731 1017.38 52.7874 1045.21 49.4687C1109.51 41.7892 1167.12 17.7467 1232.03 12.8976C1300.69 7.76878 1372.61 33.9012 1438.96 18.778" stroke="#3431DC" stroke-miterlimit="10"/>
<path d="M0.998535 1.10498C76.162 3.71054 136.906 31.505 214.346 27.8188C275.17 24.9171 334.526 13.1015 395.889 13.7323C448.274 14.2809 500.141 24.6702 551.868 28.8501C606.989 33.3042 659.914 32.4046 712.31 21.39C773.114 8.60351 827.147 15.4986 885.614 29.3438C910.759 35.2845 935.274 43.156 961.147 48.1258C988.628 53.3972 1017.24 52.9694 1045.37 49.5026C1109.78 41.5597 1167.07 17.4953 1232.21 12.2952C1300.78 6.80979 1373.01 34.5384 1438.92 18.6143" stroke="#3431DC" stroke-miterlimit="10"/>
<path d="M0.998535 1C76.2419 3.52877 136.876 31.4878 214.396 27.6645C275.22 24.664 334.656 13.0459 396.138 13.7261C448.534 14.3076 500.201 25.1357 551.917 29.4143C607.039 33.9727 660.244 32.925 712.33 21.3563C773.603 7.73606 826.878 14.878 885.904 29.2498C939.827 42.3708 984.255 57.3075 1045.32 49.617C1109.9 41.4822 1166.92 17.6207 1232.29 12.0037C1300.78 6.11787 1373.39 35.344 1439 18.5862" stroke="#3431DC" stroke-miterlimit="10"/>
</svg>
