<svg width="76" height="76" viewBox="0 0 76 76" fill="none" xmlns="http://www.w3.org/2000/svg">
<g clip-path="url(#clip0)">
<path d="M37.6263 44.2833C41.3375 44.2833 44.3461 41.2748 44.3461 37.5635C44.3461 33.8523 41.3375 30.8438 37.6263 30.8438C33.915 30.8438 30.9065 33.8523 30.9065 37.5635C30.9065 41.2748 33.915 44.2833 37.6263 44.2833Z" fill="#00D8FF"/>
<path fill-rule="evenodd" clip-rule="evenodd" d="M37.6263 23.9009C46.6485 23.9009 55.0299 25.1955 61.3495 27.3711C68.9637 29.9924 73.6452 33.9658 73.6452 37.5636C73.6452 41.3128 68.6837 45.5339 60.5071 48.2431C54.3254 50.2911 46.1907 51.3603 37.6263 51.3603C28.8454 51.3603 20.5304 50.3568 14.2791 48.2205C6.36994 45.5172 1.6062 41.2414 1.6062 37.5636C1.6062 33.995 6.07606 30.0523 13.5832 27.435C19.9263 25.2235 28.5147 23.9009 37.6251 23.9009H37.6263Z" stroke="#00D8FF" stroke-width="2.73408"/>
<path fill-rule="evenodd" clip-rule="evenodd" d="M25.7325 30.7716C30.2398 22.956 35.5482 16.3422 40.59 11.9546C46.6646 6.66815 52.4454 4.59784 55.562 6.39503C58.81 8.26803 59.9879 14.6749 58.2499 23.1113C56.9372 29.4896 53.7983 37.0703 49.5197 44.4894C45.1329 52.0961 40.1098 58.7978 35.1367 63.1447C28.8438 68.6457 22.7599 70.6364 19.5739 68.7991C16.4824 67.0176 15.3002 61.1747 16.7832 53.3638C18.0363 46.7641 21.181 38.6636 25.731 30.7715L25.7325 30.7716Z" stroke="#00D8FF" stroke-width="2.73408"/>
<path fill-rule="evenodd" clip-rule="evenodd" d="M25.7437 44.5094C21.2236 36.7027 18.1461 28.799 16.8616 22.2398C15.3153 14.3369 16.4086 8.29448 19.5223 6.49207C22.7671 4.61358 28.9061 6.79265 35.347 12.5117C40.2168 16.8356 45.2174 23.3397 49.5084 30.7519C53.9078 38.3512 57.2051 46.0501 58.4878 52.5295C60.1108 60.7289 58.7972 66.9938 55.6142 68.8364C52.5257 70.6243 46.8741 68.7313 40.8477 63.5454C35.7559 59.1639 30.3084 52.3938 25.7437 44.5093V44.5094Z" stroke="#00D8FF" stroke-width="2.73408"/>
</g>
<defs>
<clipPath id="clip0">
<rect width="75.2519" height="75.2519" fill="white"/>
</clipPath>
</defs>
</svg>
